<?xml version="1.0" encoding="iso-8859-1"?>
<!-- Generator: Adobe Illustrator 18.0.0, SVG Export Plug-In . SVG Version: 6.00 Build 0)  -->
<!DOCTYPE svg PUBLIC "-//W3C//DTD SVG 1.1//EN" "http://www.w3.org/Graphics/SVG/1.1/DTD/svg11.dtd">
<svg version="1.1" id="Capa_1" xmlns="http://www.w3.org/2000/svg" xmlns:xlink="http://www.w3.org/1999/xlink" x="0px" y="0px"
	 viewBox="0 0 512 512" style="enable-background:new 0 0 512 512;" xml:space="preserve">
<g>
	<path d="M256,176c-26.469,0-48,21.531-48,48v32h96v-32C304,197.531,282.469,176,256,176z"/>
	<path d="M480,32H32C14.328,32,0,46.328,0,64v384c0,17.672,14.328,32,32,32h448c17.672,0,32-14.328,32-32V64
		C512,46.328,497.672,32,480,32z M144,416H80c-8.844,0-16-7.164-16-16v-64c0-8.836,7.156-16,16-16c8.844,0,16,7.164,16,16v48h48
		c8.844,0,16,7.164,16,16S152.844,416,144,416z M144,128H96v48c0,8.836-7.156,16-16,16c-8.844,0-16-7.164-16-16v-64
		c0-8.836,7.156-16,16-16h64c8.844,0,16,7.164,16,16S152.844,128,144,128z M336,336c0,8.836-7.156,16-16,16c-8.844,0-16-7.164-16-16
		v-48h-96v48c0,8.836-7.156,16-16,16c-8.844,0-16-7.164-16-16V224c0-44.109,35.891-80,80-80s80,35.891,80,80V336z M448,400
		c0,8.836-7.156,16-16,16h-64c-8.844,0-16-7.164-16-16s7.156-16,16-16h48v-48c0-8.836,7.156-16,16-16c8.844,0,16,7.164,16,16V400z
		 M448,176c0,8.836-7.156,16-16,16c-8.844,0-16-7.164-16-16v-48h-48c-8.844,0-16-7.164-16-16s7.156-16,16-16h64
		c8.844,0,16,7.164,16,16V176z"/>
</g>
<g>
</g>
<g>
</g>
<g>
</g>
<g>
</g>
<g>
</g>
<g>
</g>
<g>
</g>
<g>
</g>
<g>
</g>
<g>
</g>
<g>
</g>
<g>
</g>
<g>
</g>
<g>
</g>
<g>
</g>
</svg>
