<?xml version="1.0" encoding="iso-8859-1"?>
<!-- Generator: Adobe Illustrator 19.0.0, SVG Export Plug-In . SVG Version: 6.00 Build 0)  -->
<svg version="1.1" id="Capa_1" xmlns="http://www.w3.org/2000/svg" xmlns:xlink="http://www.w3.org/1999/xlink" x="0px" y="0px"
	 viewBox="0 0 56 56" style="enable-background:new 0 0 56 56;" xml:space="preserve">
<g>
	<g>
		<path d="M28,0C12.561,0,0,12.561,0,28s12.561,28,28,28s28-12.561,28-28S43.439,0,28,0z M28,54C13.663,54,2,42.336,2,28
			S13.663,2,28,2s26,11.664,26,26S42.337,54,28,54z"/>
		<path d="M28.707,9.293c-0.391-0.391-1.023-0.391-1.414,0l-16,16c-0.286,0.286-0.372,0.716-0.217,1.09
			C11.231,26.756,11.596,27,12,27h3v18c0,0.552,0.447,1,1,1h8h8h8c0.553,0,1-0.448,1-1V27h3c0.404,0,0.77-0.244,0.924-0.617
			c0.155-0.374,0.069-0.804-0.217-1.09L28.707,9.293z M25,44V33h6v11H25z M39,44h-6V32c0-0.552-0.447-1-1-1h-8c-0.553,0-1,0.448-1,1
			v12h-6V27h22V44z M40,25H16h-1.586L28,11.414L41.586,25H40z"/>
	</g>
</g>
<g>
</g>
<g>
</g>
<g>
</g>
<g>
</g>
<g>
</g>
<g>
</g>
<g>
</g>
<g>
</g>
<g>
</g>
<g>
</g>
<g>
</g>
<g>
</g>
<g>
</g>
<g>
</g>
<g>
</g>
</svg>
