<?xml version="1.0" encoding="utf-8"?>
<!-- Generator: Adobe Illustrator 22.1.0, SVG Export Plug-In . SVG Version: 6.00 Build 0)  -->
<svg version="1.1" id="Layer_1" xmlns="http://www.w3.org/2000/svg" xmlns:xlink="http://www.w3.org/1999/xlink" x="0px" y="0px"
	 viewBox="0 0 80 80.6" style="enable-background:new 0 0 80 80.6;" xml:space="preserve">
<path d="M1,80.6c0.6,0,1-0.4,1-1V62.8h23.7c0.4,0,0.8-0.2,0.9-0.6l6.1-14.4l30.1,7.6c0.5,0.1,1,0.2,1.6,0.2c1.1,0,2.2-0.3,3.2-0.9
	c1.4-0.9,2.5-2.2,2.9-3.8l0.1-0.2l3.2,0.8c0.3,0.1,0.5,0.1,0.8,0.1c1.4,0,2.8-1,3.1-2.5l2.3-9.1c0.4-1.7-0.6-3.5-2.3-4l-3.2-0.8
	l0.5-1.9c0.6-2.5-0.6-5.1-2.9-6.3l5.6-8.5c0.2-0.3,0.2-0.6,0.1-0.9c-0.1-0.3-0.4-0.5-0.7-0.6L9.7,0C9.5,0,9.2,0,9,0.1
	S8.6,0.5,8.5,0.8L2.2,25.8C2,26.4,2.3,26.9,2.9,27l3.9,1l-1.6,6.3c-0.8,3.3,1.2,6.7,4.5,7.6l21.1,5.4L25,60.8H2V41.9
	c0-0.6-0.4-1-1-1s-1,0.4-1,1v37.7C0,80.2,0.4,80.6,1,80.6z M77.1,38.1c0.6,0.2,1,0.8,0.8,1.5l-2.3,9.1c-0.2,0.7-0.8,1.1-1.5,0.9
	l-3.2-0.8l2.9-11.5L77.1,38.1z M10.2,2.2l64.9,16.5l-14,21.1L4.3,25.4L10.2,2.2z M7.1,34.9l1.6-6.3l52.7,13.4c0.1,0,0.2,0,0.2,0
	c0.3,0,0.6-0.2,0.8-0.4l8.4-12.6c1.6,0.6,2.5,2.4,2.1,4.1l-4.5,17.5c-0.3,1.1-1,2-1.9,2.6c-1,0.6-2.1,0.7-3.2,0.5L10.2,40
	C7.9,39.4,6.5,37.1,7.1,34.9z"/>
<path d="M66,48.5c0.5-1.9-0.7-3.9-2.6-4.4c-1.9-0.5-3.9,0.7-4.4,2.6c-0.2,0.9-0.1,1.9,0.4,2.7s1.3,1.4,2.2,1.6
	c0.3,0.1,0.6,0.1,0.9,0.1c0.6,0,1.3-0.2,1.8-0.5C65.1,50.2,65.7,49.4,66,48.5z M64,48c-0.1,0.4-0.4,0.8-0.7,1
	c-0.4,0.2-0.8,0.3-1.2,0.2c-0.4-0.1-0.8-0.4-1-0.7c-0.2-0.4-0.3-0.8-0.2-1.2c0.2-0.7,0.8-1.2,1.5-1.2c0.1,0,0.3,0,0.4,0
	C63.7,46.3,64.2,47.1,64,48z"/>
<path d="M13.2,17.1c-1.9-0.5-3.9,0.7-4.4,2.6c-0.5,1.9,0.7,3.9,2.6,4.4c0.3,0.1,0.6,0.1,0.9,0.1c1.6,0,3.1-1.1,3.5-2.7
	C16.3,19.6,15.2,17.6,13.2,17.1z M13.9,21c-0.2,0.8-1.1,1.4-1.9,1.1c-0.8-0.2-1.4-1.1-1.1-1.9c0.2-0.7,0.8-1.2,1.5-1.2
	c0.1,0,0.3,0,0.4,0C13.6,19.3,14.1,20.2,13.9,21z"/>
<path d="M23.3,19.7c-1.9-0.5-3.9,0.7-4.4,2.6c-0.5,1.9,0.7,3.9,2.6,4.4c0.3,0.1,0.6,0.1,0.9,0.1c1.6,0,3.1-1.1,3.5-2.7
	c0.2-0.9,0.1-1.9-0.4-2.7C25,20.5,24.2,19.9,23.3,19.7z M24,23.6c-0.2,0.8-1.1,1.4-1.9,1.1c-0.8-0.2-1.4-1.1-1.1-1.9
	c0.2-0.7,0.8-1.2,1.5-1.2c0.1,0,0.3,0,0.4,0c0.4,0.1,0.8,0.4,1,0.7C24,22.7,24.1,23.1,24,23.6z"/>
</svg>
