<?xml version="1.0" standalone="no"?>
<!DOCTYPE svg PUBLIC "-//W3C//DTD SVG 20010904//EN"
 "http://www.w3.org/TR/2001/REC-SVG-20010904/DTD/svg10.dtd">
<svg version="1.0" xmlns="http://www.w3.org/2000/svg"
 width="90.000000pt" height="90.000000pt" viewBox="0 0 90.000000 90.000000"
 preserveAspectRatio="xMidYMid meet">

<g transform="translate(0.000000,90.000000) scale(0.100000,-0.100000)"
fill="#000000" stroke="none">
<path d="M340 825 c-20 -24 -4 -44 40 -51 33 -5 40 -11 40 -28 0 -18 -12 -27
-55 -45 -32 -13 -69 -39 -90 -63 -40 -44 -85 -131 -85 -164 0 -13 -8 -24 -21
-27 -15 -4 -20 -12 -17 -29 l3 -23 295 0 295 0 3 23 c3 17 -2 25 -17 29 -13 3
-21 14 -21 27 0 33 -45 120 -84 163 -31 35 -71 59 -128 77 -10 3 -18 15 -18
26 0 18 4 21 28 16 15 -3 63 -10 107 -16 44 -6 92 -13 108 -16 l27 -6 0 61 0
61 -199 0 c-164 0 -201 -3 -211 -15z"/>
<path d="M210 299 c0 -54 22 -108 63 -155 21 -24 42 -44 47 -44 4 0 10 23 12
51 4 40 12 58 37 82 27 27 39 32 81 32 42 0 54 -5 81 -32 25 -24 33 -42 37
-82 2 -28 8 -51 12 -51 5 0 26 20 47 44 41 47 63 101 63 155 l0 31 -240 0
-240 0 0 -31z"/>
<path d="M410 190 c-11 -11 -20 -29 -20 -40 0 -26 34 -60 60 -60 26 0 60 34
60 60 0 13 -7 20 -20 20 -13 0 -20 7 -20 20 0 13 -7 20 -20 20 -11 0 -29 -9
-40 -20z"/>
</g>
</svg>
